<svg xmlns="http://www.w3.org/2000/svg" xmlns:xlink="http://www.w3.org/1999/xlink" width="500" zoomAndPan="magnify" viewBox="0 0 375 374.999991" height="500" preserveAspectRatio="xMidYMid meet" version="1.2"><defs><clipPath id="86eab21403"><path d="M 113 37.5 L 260 37.5 L 260 184 L 113 184 Z M 113 37.5 "/></clipPath><clipPath id="0cbaf4d374"><path d="M 146.625 66.648438 L 211.875 66.648438 L 211.875 141.648438 L 146.625 141.648438 Z M 146.625 66.648438 "/></clipPath></defs><g id="00c50132da"><g clip-rule="nonzero" clip-path="url(#86eab21403)"><path style=" stroke:none;fill-rule:nonzero;fill:#000000;fill-opacity:1;" d="M 259.957031 110.59375 C 259.957031 111.789062 259.929688 112.984375 259.871094 114.179688 C 259.8125 115.375 259.722656 116.566406 259.605469 117.757812 C 259.488281 118.949219 259.34375 120.136719 259.167969 121.316406 C 258.992188 122.5 258.785156 123.679688 258.554688 124.851562 C 258.320312 126.027344 258.058594 127.191406 257.765625 128.351562 C 257.476562 129.515625 257.15625 130.667969 256.808594 131.8125 C 256.464844 132.957031 256.085938 134.089844 255.683594 135.21875 C 255.28125 136.34375 254.851562 137.460938 254.394531 138.566406 C 253.9375 139.667969 253.453125 140.761719 252.941406 141.84375 C 252.429688 142.925781 251.890625 143.992188 251.328125 145.050781 C 250.761719 146.105469 250.171875 147.144531 249.558594 148.171875 C 248.945312 149.195312 248.304688 150.207031 247.640625 151.203125 C 246.972656 152.195312 246.285156 153.175781 245.574219 154.136719 C 244.859375 155.09375 244.125 156.039062 243.367188 156.964844 C 242.605469 157.886719 241.828125 158.792969 241.023438 159.679688 C 240.21875 160.566406 239.394531 161.433594 238.550781 162.277344 C 237.703125 163.125 236.835938 163.949219 235.949219 164.75 C 235.0625 165.554688 234.160156 166.335938 233.234375 167.09375 C 232.308594 167.855469 231.367188 168.589844 230.40625 169.300781 C 229.445312 170.015625 228.46875 170.703125 227.472656 171.367188 C 226.476562 172.03125 225.46875 172.671875 224.441406 173.289062 C 223.414062 173.902344 222.375 174.492188 221.320312 175.054688 C 220.265625 175.621094 219.195312 176.15625 218.117188 176.667969 C 217.035156 177.179688 215.941406 177.664062 214.835938 178.121094 C 213.730469 178.582031 212.613281 179.011719 211.488281 179.414062 C 210.363281 179.816406 209.226562 180.191406 208.082031 180.539062 C 206.9375 180.886719 205.785156 181.207031 204.625 181.496094 C 203.464844 181.785156 202.296875 182.046875 201.125 182.28125 C 199.949219 182.515625 198.773438 182.71875 197.589844 182.894531 C 196.40625 183.070312 195.21875 183.21875 194.027344 183.335938 C 192.839844 183.453125 191.644531 183.539062 190.449219 183.597656 C 189.257812 183.65625 188.0625 183.6875 186.863281 183.6875 C 185.667969 183.6875 184.472656 183.65625 183.277344 183.597656 C 182.082031 183.539062 180.890625 183.453125 179.699219 183.335938 C 178.507812 183.21875 177.324219 183.070312 176.140625 182.894531 C 174.957031 182.71875 173.777344 182.515625 172.605469 182.28125 C 171.429688 182.046875 170.265625 181.785156 169.105469 181.496094 C 167.945312 181.207031 166.792969 180.886719 165.648438 180.539062 C 164.5 180.191406 163.367188 179.816406 162.238281 179.414062 C 161.113281 179.011719 159.996094 178.582031 158.894531 178.121094 C 157.789062 177.664062 156.695312 177.179688 155.613281 176.667969 C 154.53125 176.15625 153.464844 175.621094 152.410156 175.054688 C 151.351562 174.492188 150.3125 173.902344 149.285156 173.289062 C 148.261719 172.671875 147.25 172.03125 146.257812 171.367188 C 145.261719 170.703125 144.285156 170.015625 143.324219 169.300781 C 142.363281 168.589844 141.417969 167.855469 140.496094 167.09375 C 139.570312 166.335938 138.664062 165.554688 137.777344 164.75 C 136.890625 163.949219 136.027344 163.125 135.179688 162.277344 C 134.332031 161.433594 133.507812 160.566406 132.707031 159.679688 C 131.902344 158.792969 131.121094 157.886719 130.363281 156.964844 C 129.605469 156.039062 128.867188 155.09375 128.15625 154.132812 C 127.441406 153.175781 126.753906 152.195312 126.089844 151.203125 C 125.425781 150.207031 124.785156 149.195312 124.171875 148.171875 C 123.554688 147.144531 122.964844 146.105469 122.402344 145.050781 C 121.839844 143.992188 121.300781 142.925781 120.789062 141.84375 C 120.277344 140.761719 119.792969 139.667969 119.335938 138.566406 C 118.878906 137.460938 118.445312 136.34375 118.042969 135.21875 C 117.640625 134.089844 117.265625 132.957031 116.917969 131.8125 C 116.570312 130.667969 116.253906 129.515625 115.960938 128.351562 C 115.671875 127.191406 115.410156 126.027344 115.175781 124.851562 C 114.941406 123.679688 114.738281 122.5 114.5625 121.316406 C 114.386719 120.136719 114.242188 118.949219 114.125 117.757812 C 114.007812 116.566406 113.917969 115.375 113.859375 114.179688 C 113.800781 112.984375 113.769531 111.789062 113.769531 110.59375 C 113.769531 109.398438 113.800781 108.203125 113.859375 107.007812 C 113.917969 105.8125 114.007812 104.621094 114.125 103.429688 C 114.242188 102.238281 114.386719 101.050781 114.5625 99.867188 C 114.738281 98.683594 114.941406 97.507812 115.175781 96.332031 C 115.410156 95.160156 115.671875 93.992188 115.960938 92.832031 C 116.253906 91.671875 116.570312 90.519531 116.917969 89.375 C 117.265625 88.230469 117.640625 87.09375 118.042969 85.96875 C 118.445312 84.84375 118.878906 83.726562 119.335938 82.621094 C 119.792969 81.515625 120.277344 80.421875 120.789062 79.339844 C 121.300781 78.261719 121.839844 77.191406 122.402344 76.136719 C 122.964844 75.082031 123.554688 74.042969 124.171875 73.015625 C 124.785156 71.988281 125.425781 70.980469 126.089844 69.984375 C 126.753906 68.988281 127.441406 68.011719 128.15625 67.050781 C 128.867188 66.089844 129.605469 65.148438 130.363281 64.222656 C 131.121094 63.296875 131.902344 62.394531 132.707031 61.507812 C 133.507812 60.621094 134.332031 59.753906 135.179688 58.910156 C 136.027344 58.0625 136.890625 57.238281 137.777344 56.433594 C 138.664062 55.632812 139.570312 54.851562 140.496094 54.089844 C 141.417969 53.332031 142.363281 52.597656 143.324219 51.882812 C 144.285156 51.171875 145.261719 50.484375 146.257812 49.820312 C 147.25 49.152344 148.261719 48.515625 149.285156 47.898438 C 150.3125 47.285156 151.351562 46.695312 152.410156 46.128906 C 153.464844 45.566406 154.53125 45.027344 155.613281 44.519531 C 156.695312 44.007812 157.789062 43.523438 158.894531 43.0625 C 159.996094 42.605469 161.113281 42.175781 162.238281 41.773438 C 163.367188 41.371094 164.5 40.996094 165.648438 40.648438 C 166.792969 40.300781 167.945312 39.980469 169.105469 39.691406 C 170.265625 39.398438 171.429688 39.136719 172.605469 38.90625 C 173.777344 38.671875 174.957031 38.464844 176.140625 38.292969 C 177.324219 38.117188 178.507812 37.96875 179.699219 37.851562 C 180.890625 37.734375 182.082031 37.648438 183.277344 37.589844 C 184.472656 37.53125 185.667969 37.5 186.863281 37.5 C 188.0625 37.5 189.257812 37.53125 190.449219 37.589844 C 191.644531 37.648438 192.839844 37.734375 194.027344 37.851562 C 195.21875 37.96875 196.40625 38.117188 197.589844 38.292969 C 198.773438 38.464844 199.949219 38.671875 201.125 38.90625 C 202.296875 39.136719 203.464844 39.398438 204.625 39.691406 C 205.785156 39.980469 206.9375 40.300781 208.082031 40.648438 C 209.226562 40.996094 210.363281 41.371094 211.488281 41.773438 C 212.613281 42.175781 213.730469 42.605469 214.835938 43.0625 C 215.941406 43.523438 217.035156 44.007812 218.117188 44.519531 C 219.195312 45.027344 220.265625 45.566406 221.320312 46.128906 C 222.375 46.695312 223.414062 47.285156 224.441406 47.898438 C 225.46875 48.515625 226.476562 49.152344 227.472656 49.820312 C 228.46875 50.484375 229.445312 51.171875 230.40625 51.882812 C 231.367188 52.597656 232.308594 53.332031 233.234375 54.089844 C 234.160156 54.851562 235.0625 55.632812 235.949219 56.433594 C 236.835938 57.238281 237.703125 58.0625 238.550781 58.910156 C 239.394531 59.753906 240.21875 60.621094 241.023438 61.507812 C 241.828125 62.394531 242.605469 63.296875 243.367188 64.222656 C 244.125 65.148438 244.859375 66.089844 245.574219 67.050781 C 246.285156 68.011719 246.972656 68.988281 247.640625 69.984375 C 248.304688 70.980469 248.945312 71.988281 249.558594 73.015625 C 250.171875 74.042969 250.761719 75.082031 251.328125 76.136719 C 251.890625 77.191406 252.429688 78.261719 252.941406 79.339844 C 253.453125 80.421875 253.9375 81.515625 254.394531 82.621094 C 254.851562 83.726562 255.28125 84.84375 255.683594 85.96875 C 256.085938 87.09375 256.464844 88.230469 256.808594 89.375 C 257.15625 90.519531 257.476562 91.671875 257.765625 92.832031 C 258.058594 93.992188 258.320312 95.160156 258.554688 96.332031 C 258.785156 97.507812 258.992188 98.683594 259.167969 99.867188 C 259.34375 101.050781 259.488281 102.238281 259.605469 103.429688 C 259.722656 104.621094 259.8125 105.8125 259.871094 107.007812 C 259.929688 108.203125 259.957031 109.398438 259.957031 110.59375 Z M 259.957031 110.59375 "/></g><path style=" stroke:none;fill-rule:nonzero;fill:#000000;fill-opacity:1;" d="M 107.414062 148.730469 C 107.414062 150.289062 107.339844 151.847656 107.1875 153.402344 C 107.03125 154.953125 106.804688 156.496094 106.5 158.027344 C 106.195312 159.558594 105.816406 161.074219 105.363281 162.566406 C 104.910156 164.058594 104.382812 165.527344 103.785156 166.972656 C 103.1875 168.414062 102.523438 169.824219 101.785156 171.199219 C 101.050781 172.578125 100.25 173.914062 99.382812 175.210938 C 98.515625 176.511719 97.585938 177.761719 96.59375 178.96875 C 95.605469 180.175781 94.558594 181.332031 93.453125 182.4375 C 92.347656 183.539062 91.195312 184.585938 89.988281 185.578125 C 88.78125 186.566406 87.527344 187.496094 86.230469 188.363281 C 84.929688 189.230469 83.59375 190.035156 82.21875 190.769531 C 80.839844 191.503906 79.429688 192.171875 77.988281 192.769531 C 76.546875 193.367188 75.078125 193.890625 73.582031 194.34375 C 72.089844 194.796875 70.578125 195.175781 69.046875 195.480469 C 67.515625 195.785156 65.972656 196.015625 64.417969 196.167969 C 62.863281 196.320312 61.308594 196.398438 59.746094 196.398438 C 58.183594 196.398438 56.628906 196.320312 55.074219 196.167969 C 53.519531 196.015625 51.976562 195.785156 50.445312 195.480469 C 48.914062 195.175781 47.402344 194.800781 45.90625 194.34375 C 44.414062 193.890625 42.945312 193.367188 41.503906 192.769531 C 40.0625 192.171875 38.652344 191.503906 37.273438 190.769531 C 35.898438 190.035156 34.558594 189.230469 33.261719 188.363281 C 31.964844 187.496094 30.710938 186.566406 29.503906 185.578125 C 28.296875 184.585938 27.140625 183.539062 26.039062 182.4375 C 24.933594 181.332031 23.886719 180.175781 22.898438 178.96875 C 21.90625 177.761719 20.976562 176.511719 20.109375 175.210938 C 19.242188 173.914062 18.441406 172.578125 17.703125 171.199219 C 16.96875 169.824219 16.300781 168.414062 15.703125 166.972656 C 15.109375 165.527344 14.582031 164.058594 14.128906 162.566406 C 13.675781 161.074219 13.296875 159.558594 12.992188 158.027344 C 12.6875 156.496094 12.457031 154.953125 12.304688 153.402344 C 12.152344 151.847656 12.078125 150.289062 12.078125 148.730469 C 12.078125 147.167969 12.152344 145.609375 12.304688 144.054688 C 12.457031 142.503906 12.6875 140.960938 12.992188 139.429688 C 13.296875 137.898438 13.675781 136.386719 14.128906 134.890625 C 14.582031 133.398438 15.109375 131.929688 15.703125 130.488281 C 16.300781 129.042969 16.96875 127.632812 17.703125 126.257812 C 18.441406 124.878906 19.242188 123.542969 20.109375 122.246094 C 20.976562 120.945312 21.90625 119.695312 22.898438 118.488281 C 23.886719 117.28125 24.933594 116.125 26.039062 115.019531 C 27.140625 113.917969 28.296875 112.871094 29.503906 111.878906 C 30.710938 110.890625 31.964844 109.960938 33.261719 109.09375 C 34.558594 108.226562 35.898438 107.425781 37.273438 106.6875 C 38.652344 105.953125 40.0625 105.285156 41.503906 104.6875 C 42.945312 104.089844 44.414062 103.566406 45.90625 103.113281 C 47.402344 102.660156 48.914062 102.28125 50.445312 101.976562 C 51.976562 101.671875 53.519531 101.441406 55.074219 101.289062 C 56.628906 101.136719 58.183594 101.058594 59.746094 101.058594 C 61.308594 101.058594 62.863281 101.136719 64.417969 101.289062 C 65.972656 101.441406 67.515625 101.671875 69.046875 101.976562 C 70.578125 102.28125 72.089844 102.660156 73.582031 103.113281 C 75.078125 103.566406 76.546875 104.089844 77.988281 104.6875 C 79.429688 105.285156 80.839844 105.953125 82.21875 106.6875 C 83.59375 107.425781 84.929688 108.226562 86.230469 109.09375 C 87.527344 109.960938 88.78125 110.890625 89.988281 111.878906 C 91.195312 112.871094 92.347656 113.917969 93.453125 115.019531 C 94.558594 116.125 95.605469 117.28125 96.59375 118.488281 C 97.585938 119.695312 98.515625 120.945312 99.382812 122.246094 C 100.25 123.542969 101.050781 124.878906 101.785156 126.257812 C 102.523438 127.632812 103.1875 129.042969 103.785156 130.488281 C 104.382812 131.929688 104.910156 133.398438 105.363281 134.890625 C 105.816406 136.386719 106.195312 137.898438 106.5 139.429688 C 106.804688 140.960938 107.03125 142.503906 107.1875 144.054688 C 107.339844 145.609375 107.414062 147.167969 107.414062 148.730469 Z M 107.414062 148.730469 "/><path style=" stroke:none;fill-rule:nonzero;fill:#000000;fill-opacity:1;" d="M 361.652344 148.730469 C 361.652344 150.289062 361.574219 151.847656 361.421875 153.402344 C 361.269531 154.953125 361.042969 156.496094 360.738281 158.027344 C 360.433594 159.558594 360.054688 161.074219 359.601562 162.566406 C 359.148438 164.058594 358.621094 165.527344 358.023438 166.972656 C 357.425781 168.414062 356.757812 169.824219 356.023438 171.199219 C 355.289062 172.578125 354.484375 173.914062 353.617188 175.210938 C 352.75 176.511719 351.824219 177.761719 350.832031 178.96875 C 349.839844 180.175781 348.792969 181.332031 347.691406 182.4375 C 346.585938 183.539062 345.429688 184.585938 344.222656 185.578125 C 343.015625 186.566406 341.765625 187.496094 340.464844 188.363281 C 339.167969 189.230469 337.832031 190.035156 336.453125 190.769531 C 335.078125 191.503906 333.667969 192.171875 332.226562 192.769531 C 330.78125 193.367188 329.316406 193.890625 327.820312 194.34375 C 326.328125 194.796875 324.8125 195.175781 323.28125 195.480469 C 321.75 195.785156 320.210938 196.015625 318.65625 196.167969 C 317.101562 196.320312 315.542969 196.398438 313.984375 196.398438 C 312.421875 196.398438 310.863281 196.320312 309.3125 196.167969 C 307.757812 196.015625 306.214844 195.785156 304.683594 195.480469 C 303.152344 195.175781 301.640625 194.800781 300.144531 194.34375 C 298.652344 193.890625 297.183594 193.367188 295.742188 192.769531 C 294.296875 192.171875 292.886719 191.503906 291.511719 190.769531 C 290.136719 190.035156 288.796875 189.230469 287.5 188.363281 C 286.199219 187.496094 284.949219 186.566406 283.742188 185.578125 C 282.535156 184.585938 281.378906 183.539062 280.277344 182.4375 C 279.171875 181.332031 278.125 180.175781 277.132812 178.96875 C 276.144531 177.761719 275.214844 176.511719 274.347656 175.210938 C 273.480469 173.914062 272.679688 172.578125 271.941406 171.199219 C 271.207031 169.824219 270.539062 168.414062 269.941406 166.972656 C 269.34375 165.527344 268.820312 164.058594 268.367188 162.566406 C 267.914062 161.074219 267.535156 159.558594 267.230469 158.027344 C 266.925781 156.496094 266.695312 154.953125 266.542969 153.402344 C 266.390625 151.847656 266.3125 150.289062 266.3125 148.730469 C 266.3125 147.167969 266.390625 145.609375 266.542969 144.054688 C 266.695312 142.503906 266.925781 140.960938 267.230469 139.429688 C 267.535156 137.898438 267.914062 136.386719 268.367188 134.890625 C 268.820312 133.398438 269.34375 131.929688 269.941406 130.488281 C 270.539062 129.042969 271.207031 127.632812 271.941406 126.257812 C 272.679688 124.878906 273.480469 123.542969 274.347656 122.246094 C 275.214844 120.945312 276.144531 119.695312 277.132812 118.488281 C 278.125 117.28125 279.171875 116.125 280.277344 115.019531 C 281.378906 113.917969 282.535156 112.871094 283.742188 111.878906 C 284.949219 110.890625 286.199219 109.960938 287.5 109.09375 C 288.796875 108.226562 290.136719 107.425781 291.511719 106.6875 C 292.886719 105.953125 294.296875 105.285156 295.742188 104.6875 C 297.183594 104.089844 298.652344 103.566406 300.144531 103.113281 C 301.640625 102.660156 303.152344 102.28125 304.683594 101.976562 C 306.214844 101.671875 307.757812 101.441406 309.3125 101.289062 C 310.863281 101.136719 312.421875 101.058594 313.984375 101.058594 C 315.542969 101.058594 317.101562 101.136719 318.65625 101.289062 C 320.210938 101.441406 321.75 101.671875 323.28125 101.976562 C 324.8125 102.28125 326.328125 102.660156 327.820312 103.113281 C 329.316406 103.566406 330.78125 104.089844 332.226562 104.6875 C 333.667969 105.285156 335.078125 105.953125 336.453125 106.6875 C 337.832031 107.425781 339.167969 108.226562 340.464844 109.09375 C 341.765625 109.960938 343.015625 110.890625 344.222656 111.878906 C 345.429688 112.871094 346.585938 113.917969 347.691406 115.019531 C 348.792969 116.125 349.839844 117.28125 350.832031 118.488281 C 351.824219 119.695312 352.75 120.945312 353.617188 122.246094 C 354.484375 123.542969 355.289062 124.878906 356.023438 126.257812 C 356.757812 127.632812 357.425781 129.042969 358.023438 130.488281 C 358.621094 131.929688 359.148438 133.398438 359.601562 134.890625 C 360.054688 136.386719 360.433594 137.898438 360.738281 139.429688 C 361.042969 140.960938 361.269531 142.503906 361.421875 144.054688 C 361.574219 145.609375 361.652344 147.167969 361.652344 148.730469 Z M 361.652344 148.730469 "/><path style=" stroke:none;fill-rule:nonzero;fill:#000000;fill-opacity:1;" d="M 308.316406 301.875 C 307.960938 300.140625 307.570312 298.417969 307.140625 296.703125 C 306.714844 294.988281 306.25 293.28125 305.75 291.585938 C 305.246094 289.890625 304.710938 288.207031 304.136719 286.535156 C 303.5625 284.859375 302.953125 283.199219 302.3125 281.554688 C 301.667969 279.90625 300.988281 278.277344 300.273438 276.660156 C 299.558594 275.042969 298.8125 273.441406 298.027344 271.855469 C 297.246094 270.269531 296.429688 268.699219 295.582031 267.148438 C 294.730469 265.597656 293.847656 264.066406 292.933594 262.554688 C 292.019531 261.042969 291.070312 259.550781 290.09375 258.078125 C 289.113281 256.605469 288.101562 255.152344 287.0625 253.726562 C 286.019531 252.296875 284.949219 250.890625 283.847656 249.507812 C 282.746094 248.125 281.617188 246.765625 280.457031 245.429688 C 279.296875 244.09375 278.109375 242.785156 276.894531 241.5 C 275.679688 240.21875 274.4375 238.960938 273.167969 237.730469 C 271.898438 236.496094 270.601562 235.292969 269.28125 234.121094 C 267.960938 232.945312 266.617188 231.796875 265.246094 230.679688 C 263.878906 229.5625 262.484375 228.472656 261.066406 227.414062 C 259.652344 226.355469 258.214844 225.328125 256.753906 224.332031 C 255.292969 223.335938 253.8125 222.371094 252.308594 221.4375 C 250.808594 220.503906 249.289062 219.601562 247.746094 218.734375 C 246.207031 217.867188 244.648438 217.03125 243.074219 216.230469 C 241.496094 215.425781 239.90625 214.660156 238.296875 213.925781 C 236.6875 213.191406 235.0625 212.492188 233.425781 211.828125 C 231.785156 211.164062 230.132812 210.535156 228.46875 209.945312 C 226.804688 209.351562 225.125 208.792969 223.4375 208.269531 C 221.746094 207.75 220.046875 207.265625 218.335938 206.816406 C 216.625 206.367188 214.90625 205.953125 213.179688 205.578125 C 211.453125 205.203125 209.71875 204.867188 207.976562 204.5625 C 206.234375 204.261719 204.484375 204 202.730469 203.773438 C 200.976562 203.546875 199.21875 203.359375 197.457031 203.207031 C 195.695312 203.054688 193.933594 202.941406 192.167969 202.867188 C 190.398438 202.792969 188.632812 202.753906 186.863281 202.753906 C 185.097656 202.753906 183.328125 202.792969 181.5625 202.867188 C 179.796875 202.941406 178.03125 203.054688 176.269531 203.207031 C 174.507812 203.359375 172.75 203.546875 170.996094 203.773438 C 169.242188 204 167.496094 204.261719 165.753906 204.5625 C 164.011719 204.867188 162.277344 205.203125 160.550781 205.578125 C 158.820312 205.953125 157.101562 206.367188 155.390625 206.816406 C 153.683594 207.265625 151.980469 207.75 150.292969 208.269531 C 148.601562 208.792969 146.925781 209.351562 145.261719 209.945312 C 143.59375 210.535156 141.941406 211.164062 140.304688 211.828125 C 138.664062 212.492188 137.042969 213.191406 135.433594 213.925781 C 133.824219 214.660156 132.230469 215.425781 130.65625 216.230469 C 129.078125 217.03125 127.523438 217.867188 125.980469 218.734375 C 124.441406 219.601562 122.921875 220.503906 121.417969 221.4375 C 119.917969 222.371094 118.4375 223.335938 116.976562 224.332031 C 115.515625 225.328125 114.078125 226.355469 112.660156 227.414062 C 111.246094 228.472656 109.851562 229.5625 108.480469 230.679688 C 107.113281 231.796875 105.765625 232.945312 104.445312 234.121094 C 103.125 235.292969 101.832031 236.496094 100.5625 237.730469 C 99.292969 238.960938 98.050781 240.21875 96.835938 241.5 C 95.617188 242.785156 94.429688 244.09375 93.273438 245.429688 C 92.113281 246.765625 90.980469 248.125 89.878906 249.507812 C 88.78125 250.890625 87.707031 252.296875 86.667969 253.726562 C 85.625 255.152344 84.617188 256.605469 83.636719 258.078125 C 82.65625 259.550781 81.710938 261.042969 80.796875 262.554688 C 79.878906 264.066406 78.996094 265.597656 78.148438 267.148438 C 77.296875 268.699219 76.484375 270.269531 75.699219 271.855469 C 74.917969 273.441406 74.167969 275.039062 73.457031 276.660156 C 72.742188 278.277344 72.0625 279.90625 71.417969 281.554688 C 70.773438 283.199219 70.164062 284.859375 69.59375 286.535156 C 69.019531 288.207031 68.480469 289.890625 67.980469 291.585938 C 67.480469 293.28125 67.015625 294.988281 66.585938 296.703125 C 66.160156 298.417969 65.765625 300.140625 65.414062 301.875 C 65.214844 302.910156 65.078125 303.953125 64.996094 305.003906 C 64.914062 306.058594 64.886719 307.109375 64.921875 308.164062 C 64.953125 309.21875 65.042969 310.265625 65.191406 311.3125 C 65.335938 312.355469 65.542969 313.390625 65.800781 314.410156 C 66.0625 315.433594 66.375 316.4375 66.746094 317.425781 C 67.117188 318.414062 67.539062 319.378906 68.015625 320.320312 C 68.488281 321.261719 69.015625 322.171875 69.589844 323.058594 C 70.164062 323.941406 70.785156 324.792969 71.453125 325.609375 C 72.121094 326.425781 72.832031 327.203125 73.585938 327.941406 C 74.339844 328.679688 75.128906 329.375 75.957031 330.027344 C 76.785156 330.679688 77.648438 331.285156 78.542969 331.84375 C 79.4375 332.402344 80.359375 332.910156 81.3125 333.367188 C 82.261719 333.824219 83.234375 334.226562 84.230469 334.578125 C 85.222656 334.929688 86.234375 335.226562 87.261719 335.464844 C 88.289062 335.707031 89.324219 335.890625 90.371094 336.019531 C 91.417969 336.144531 92.46875 336.214844 93.523438 336.230469 L 280.203125 336.230469 C 281.261719 336.21875 282.3125 336.148438 283.359375 336.023438 C 284.40625 335.894531 285.445312 335.710938 286.472656 335.472656 C 287.5 335.234375 288.507812 334.9375 289.503906 334.585938 C 290.5 334.234375 291.472656 333.832031 292.425781 333.375 C 293.375 332.917969 294.296875 332.410156 295.195312 331.851562 C 296.089844 331.296875 296.953125 330.691406 297.78125 330.039062 C 298.609375 329.386719 299.402344 328.691406 300.152344 327.953125 C 300.90625 327.210938 301.617188 326.433594 302.285156 325.617188 C 302.953125 324.800781 303.574219 323.949219 304.152344 323.066406 C 304.726562 322.183594 305.25 321.269531 305.726562 320.328125 C 306.203125 319.386719 306.625 318.417969 306.992188 317.433594 C 307.363281 316.445312 307.679688 315.4375 307.9375 314.414062 C 308.199219 313.394531 308.402344 312.359375 308.546875 311.316406 C 308.695312 310.269531 308.78125 309.21875 308.816406 308.164062 C 308.847656 307.109375 308.820312 306.058594 308.738281 305.007812 C 308.652344 303.953125 308.511719 302.910156 308.316406 301.875 Z M 308.316406 301.875 "/><path style=" stroke:none;fill-rule:nonzero;fill:#000000;fill-opacity:1;" d="M 88.730469 222.839844 C 84.203125 227.09375 79.976562 231.625 76.042969 236.433594 C 72.113281 241.242188 68.511719 246.285156 65.238281 251.566406 C 61.964844 256.84375 59.050781 262.3125 56.492188 267.972656 C 53.933594 273.632812 51.757812 279.4375 49.957031 285.382812 L 8.898438 285.382812 C 8.273438 285.375 7.65625 285.3125 7.042969 285.1875 C 6.429688 285.0625 5.835938 284.878906 5.261719 284.636719 C 4.683594 284.394531 4.136719 284.101562 3.617188 283.753906 C 3.097656 283.40625 2.617188 283.011719 2.175781 282.570312 C 1.734375 282.125 1.339844 281.648438 0.992188 281.128906 C 0.644531 280.609375 0.351562 280.0625 0.109375 279.484375 C -0.132812 278.910156 -0.316406 278.316406 -0.441406 277.703125 C -0.566406 277.089844 -0.632812 276.472656 -0.636719 275.847656 C -0.632812 274.542969 -0.589844 273.242188 -0.503906 271.941406 C -0.421875 270.640625 -0.292969 269.347656 -0.125 268.054688 C 0.046875 266.761719 0.257812 265.476562 0.507812 264.199219 C 0.761719 262.921875 1.054688 261.652344 1.386719 260.390625 C 1.722656 259.132812 2.097656 257.886719 2.511719 256.652344 C 2.925781 255.414062 3.382812 254.195312 3.875 252.988281 C 4.371094 251.785156 4.902344 250.59375 5.472656 249.425781 C 6.042969 248.253906 6.652344 247.101562 7.296875 245.96875 C 7.941406 244.835938 8.625 243.726562 9.339844 242.640625 C 10.058594 241.550781 10.808594 240.488281 11.597656 239.449219 C 12.382812 238.410156 13.199219 237.394531 14.050781 236.410156 C 14.902344 235.421875 15.785156 234.464844 16.699219 233.535156 C 17.613281 232.605469 18.554688 231.707031 19.527344 230.839844 C 20.496094 229.972656 21.496094 229.136719 22.523438 228.332031 C 23.546875 227.527344 24.597656 226.757812 25.671875 226.023438 C 26.75 225.289062 27.847656 224.585938 28.96875 223.921875 C 30.089844 223.257812 31.230469 222.628906 32.390625 222.039062 C 33.550781 221.449219 34.730469 220.894531 35.929688 220.378906 C 37.125 219.867188 38.335938 219.390625 39.566406 218.953125 C 40.792969 218.519531 42.035156 218.121094 43.285156 217.765625 C 44.539062 217.410156 45.804688 217.09375 47.078125 216.820312 C 48.351562 216.546875 49.632812 216.3125 50.921875 216.121094 C 52.210938 215.929688 53.503906 215.78125 54.804688 215.671875 C 56.101562 215.566406 57.402344 215.5 58.703125 215.476562 C 60.007812 215.453125 61.308594 215.46875 62.613281 215.53125 C 63.914062 215.589844 65.210938 215.695312 66.507812 215.839844 C 67.800781 215.984375 69.089844 216.167969 70.371094 216.398438 C 71.65625 216.625 72.929688 216.894531 74.195312 217.207031 C 75.460938 217.515625 76.714844 217.867188 77.957031 218.257812 C 79.199219 218.648438 80.429688 219.082031 81.644531 219.550781 C 82.859375 220.023438 84.058594 220.53125 85.238281 221.082031 C 86.421875 221.628906 87.585938 222.214844 88.730469 222.839844 Z M 88.730469 222.839844 "/><path style=" stroke:none;fill-rule:nonzero;fill:#000000;fill-opacity:1;" d="M 374.363281 275.847656 C 374.359375 276.472656 374.296875 277.089844 374.167969 277.703125 C 374.042969 278.316406 373.859375 278.910156 373.621094 279.484375 C 373.378906 280.0625 373.085938 280.609375 372.738281 281.128906 C 372.386719 281.648438 371.992188 282.125 371.550781 282.570312 C 371.109375 283.011719 370.628906 283.40625 370.109375 283.753906 C 369.59375 284.101562 369.042969 284.394531 368.46875 284.636719 C 367.890625 284.878906 367.296875 285.0625 366.6875 285.1875 C 366.074219 285.3125 365.457031 285.375 364.832031 285.382812 L 323.769531 285.382812 C 321.972656 279.4375 319.792969 273.632812 317.234375 267.972656 C 314.679688 262.3125 311.761719 256.84375 308.492188 251.566406 C 305.21875 246.285156 301.617188 241.242188 297.683594 236.433594 C 293.753906 231.625 289.523438 227.09375 285 222.839844 C 286.144531 222.214844 287.308594 221.628906 288.488281 221.082031 C 289.671875 220.53125 290.871094 220.023438 292.085938 219.550781 C 293.300781 219.082031 294.527344 218.648438 295.769531 218.257812 C 297.011719 217.867188 298.269531 217.515625 299.53125 217.207031 C 300.796875 216.894531 302.074219 216.625 303.355469 216.398438 C 304.636719 216.167969 305.925781 215.984375 307.222656 215.839844 C 308.515625 215.695312 309.816406 215.589844 311.117188 215.53125 C 312.417969 215.46875 313.722656 215.453125 315.023438 215.476562 C 316.328125 215.5 317.628906 215.566406 318.925781 215.671875 C 320.222656 215.78125 321.519531 215.929688 322.808594 216.121094 C 324.097656 216.3125 325.378906 216.546875 326.652344 216.820312 C 327.925781 217.09375 329.1875 217.410156 330.441406 217.765625 C 331.695312 218.121094 332.9375 218.519531 334.164062 218.953125 C 335.390625 219.390625 336.605469 219.867188 337.800781 220.378906 C 338.996094 220.894531 340.175781 221.449219 341.339844 222.039062 C 342.5 222.628906 343.640625 223.257812 344.761719 223.921875 C 345.882812 224.585938 346.980469 225.289062 348.054688 226.023438 C 349.128906 226.757812 350.179688 227.527344 351.207031 228.332031 C 352.230469 229.136719 353.230469 229.972656 354.203125 230.839844 C 355.171875 231.707031 356.117188 232.609375 357.03125 233.535156 C 357.941406 234.464844 358.824219 235.421875 359.675781 236.410156 C 360.527344 237.394531 361.347656 238.410156 362.132812 239.449219 C 362.917969 240.488281 363.671875 241.550781 364.386719 242.640625 C 365.105469 243.726562 365.785156 244.835938 366.429688 245.96875 C 367.078125 247.101562 367.683594 248.253906 368.253906 249.425781 C 368.828125 250.59375 369.359375 251.785156 369.851562 252.988281 C 370.347656 254.195312 370.800781 255.414062 371.214844 256.652344 C 371.632812 257.886719 372.007812 259.132812 372.339844 260.390625 C 372.675781 261.652344 372.96875 262.921875 373.21875 264.199219 C 373.472656 265.476562 373.683594 266.761719 373.851562 268.054688 C 374.023438 269.347656 374.148438 270.640625 374.234375 271.941406 C 374.320312 273.242188 374.363281 274.542969 374.363281 275.847656 Z M 374.363281 275.847656 "/><g clip-rule="nonzero" clip-path="url(#0cbaf4d374)"><path style=" stroke:none;fill-rule:nonzero;fill:#000000;fill-opacity:1;" d="M 187.921875 103.722656 C 188.574219 103.398438 189.210938 103.039062 189.824219 102.644531 C 190.4375 102.25 191.027344 101.824219 191.59375 101.363281 C 192.160156 100.902344 192.699219 100.414062 193.210938 99.890625 C 193.722656 99.371094 194.203125 98.824219 194.652344 98.25 C 195.101562 97.675781 195.519531 97.078125 195.902344 96.457031 C 196.285156 95.835938 196.632812 95.195312 196.941406 94.535156 C 197.253906 93.875 197.527344 93.199219 197.761719 92.511719 C 198 91.820312 198.195312 91.117188 198.351562 90.40625 C 198.511719 89.691406 198.628906 88.972656 198.703125 88.25 C 198.78125 87.523438 198.816406 86.796875 198.8125 86.066406 C 198.808594 85.335938 198.761719 84.609375 198.675781 83.882812 C 198.59375 83.160156 198.464844 82.441406 198.300781 81.730469 C 198.132812 81.019531 197.929688 80.320312 197.683594 79.632812 C 197.441406 78.945312 197.15625 78.277344 196.839844 77.621094 C 196.519531 76.964844 196.164062 76.328125 195.773438 75.710938 C 195.382812 75.09375 194.960938 74.503906 194.503906 73.933594 C 194.046875 73.363281 193.558594 72.824219 193.039062 72.308594 C 192.523438 71.792969 191.976562 71.308594 191.40625 70.855469 C 190.835938 70.402344 190.238281 69.984375 189.621094 69.597656 C 189.003906 69.210938 188.363281 68.859375 187.707031 68.542969 C 187.046875 68.226562 186.375 67.949219 185.6875 67.710938 C 184.996094 67.46875 184.296875 67.269531 183.585938 67.105469 C 182.875 66.945312 182.15625 66.824219 181.429688 66.742188 C 180.707031 66.660156 179.976562 66.621094 179.25 66.621094 C 178.519531 66.621094 177.792969 66.660156 177.066406 66.742188 C 176.339844 66.824219 175.621094 66.945312 174.910156 67.105469 C 174.199219 67.269531 173.5 67.46875 172.808594 67.710938 C 172.121094 67.949219 171.449219 68.226562 170.789062 68.542969 C 170.132812 68.859375 169.492188 69.210938 168.875 69.597656 C 168.257812 69.984375 167.660156 70.402344 167.089844 70.855469 C 166.519531 71.308594 165.972656 71.792969 165.457031 72.308594 C 164.9375 72.824219 164.453125 73.363281 163.996094 73.933594 C 163.539062 74.503906 163.113281 75.09375 162.722656 75.710938 C 162.332031 76.328125 161.976562 76.964844 161.65625 77.621094 C 161.339844 78.277344 161.054688 78.945312 160.8125 79.632812 C 160.566406 80.320312 160.363281 81.019531 160.195312 81.730469 C 160.03125 82.441406 159.90625 83.160156 159.820312 83.882812 C 159.734375 84.609375 159.6875 85.335938 159.683594 86.066406 C 159.679688 86.796875 159.714844 87.523438 159.792969 88.25 C 159.867188 88.972656 159.984375 89.691406 160.144531 90.40625 C 160.300781 91.117188 160.496094 91.820312 160.734375 92.511719 C 160.96875 93.199219 161.242188 93.875 161.554688 94.535156 C 161.867188 95.195312 162.210938 95.835938 162.597656 96.457031 C 162.980469 97.078125 163.394531 97.675781 163.84375 98.25 C 164.296875 98.824219 164.777344 99.371094 165.285156 99.890625 C 165.796875 100.414062 166.335938 100.902344 166.902344 101.363281 C 167.46875 101.824219 168.058594 102.25 168.671875 102.644531 C 169.285156 103.039062 169.921875 103.398438 170.574219 103.722656 C 168.867188 104.195312 167.210938 104.800781 165.601562 105.542969 C 163.992188 106.28125 162.453125 107.148438 160.988281 108.140625 C 159.519531 109.132812 158.144531 110.238281 156.855469 111.453125 C 155.566406 112.667969 154.386719 113.980469 153.3125 115.390625 C 152.242188 116.796875 151.289062 118.285156 150.457031 119.847656 C 149.625 121.410156 148.925781 123.03125 148.359375 124.710938 C 147.789062 126.386719 147.363281 128.101562 147.074219 129.847656 C 146.785156 131.59375 146.640625 133.355469 146.640625 135.125 L 146.640625 138.386719 C 146.640625 138.820312 146.722656 139.234375 146.886719 139.632812 C 147.054688 140.035156 147.289062 140.386719 147.59375 140.691406 C 147.898438 140.996094 148.253906 141.234375 148.652344 141.398438 C 149.050781 141.5625 149.46875 141.648438 149.902344 141.648438 L 208.597656 141.648438 C 209.027344 141.648438 209.445312 141.5625 209.84375 141.398438 C 210.242188 141.234375 210.597656 140.996094 210.902344 140.691406 C 211.207031 140.386719 211.441406 140.035156 211.609375 139.632812 C 211.773438 139.234375 211.855469 138.820312 211.855469 138.386719 L 211.855469 135.125 C 211.855469 133.355469 211.710938 131.59375 211.421875 129.847656 C 211.132812 128.101562 210.707031 126.386719 210.136719 124.710938 C 209.570312 123.03125 208.871094 121.410156 208.039062 119.847656 C 207.207031 118.285156 206.257812 116.796875 205.183594 115.390625 C 204.109375 113.980469 202.929688 112.667969 201.640625 111.453125 C 200.355469 110.238281 198.976562 109.132812 197.507812 108.140625 C 196.042969 107.148438 194.503906 106.28125 192.894531 105.542969 C 191.289062 104.800781 189.628906 104.195312 187.921875 103.722656 Z M 187.921875 103.722656 "/></g></g></svg>