<svg xmlns="http://www.w3.org/2000/svg" xmlns:xlink="http://www.w3.org/1999/xlink" width="500" zoomAndPan="magnify" viewBox="0 0 375 374.999991" height="500" preserveAspectRatio="xMidYMid meet" version="1.2"><defs><clipPath id="e1e6b59509"><path d="M 3.15625 0 L 372.007812 0 L 372.007812 198.523438 L 3.15625 198.523438 Z M 3.15625 0 "/></clipPath><clipPath id="c237dfc943"><path d="M 166.171875 112.570312 L 231.421875 112.570312 L 231.421875 170.320312 L 166.171875 170.320312 Z M 166.171875 112.570312 "/></clipPath><clipPath id="266ce56088"><path d="M 65 257.105469 L 130 257.105469 L 130 310.355469 L 65 310.355469 Z M 65 257.105469 "/></clipPath></defs><g id="f954a1a8cf"><g clip-rule="nonzero" clip-path="url(#e1e6b59509)"><path style=" stroke:none;fill-rule:nonzero;fill:#000000;fill-opacity:1;" d="M 370.300781 181.070312 C 372.582031 178.785156 372.582031 175.089844 370.300781 172.808594 L 204.488281 6.996094 C 195.160156 -2.332031 180.039062 -2.332031 170.710938 6.996094 L 163.757812 13.949219 L 4.867188 172.808594 C 2.585938 175.089844 2.585938 178.789062 4.867188 181.070312 L 20.449219 196.652344 C 22.730469 198.929688 26.425781 198.929688 28.707031 196.652344 L 183.140625 42.246094 C 185.605469 39.785156 189.597656 39.785156 192.058594 42.246094 L 346.457031 196.652344 C 348.742188 198.929688 352.4375 198.929688 354.71875 196.652344 L 370.300781 181.070312 "/></g><path style=" stroke:none;fill-rule:nonzero;fill:#000000;fill-opacity:1;" d="M 312.667969 126.363281 L 263.410156 108.5 L 263.410156 19.210938 C 263.410156 15.851562 266.136719 13.125 269.496094 13.125 L 306.582031 13.125 C 309.941406 13.125 312.667969 15.851562 312.667969 19.210938 L 312.667969 126.363281 "/><path style=" stroke:none;fill-rule:nonzero;fill:#000000;fill-opacity:1;" d="M 315.660156 181.417969 L 191.136719 56.894531 C 189.183594 54.941406 186.015625 54.941406 184.0625 56.894531 L 59.539062 181.417969 C 55.074219 185.878906 52.566406 191.933594 52.566406 198.25 L 52.566406 360.886719 C 52.566406 365.367188 56.199219 369 60.679688 369 L 139.804688 369 C 144.78125 369 148.816406 364.964844 148.816406 359.988281 L 148.816406 242.457031 C 148.816406 241.191406 149.84375 240.164062 151.109375 240.164062 L 224.089844 240.164062 C 225.359375 240.164062 226.382812 241.191406 226.382812 242.457031 L 226.382812 359.988281 C 226.382812 364.964844 230.417969 369 235.394531 369 L 314.519531 369 C 319.003906 369 322.632812 365.367188 322.632812 360.886719 L 322.632812 198.25 C 322.632812 191.933594 320.128906 185.878906 315.660156 181.417969 "/><g clip-rule="nonzero" clip-path="url(#c237dfc943)"><path style=" stroke:none;fill-rule:nonzero;fill:#000000;fill-opacity:1;" d="M 198.726562 112.640625 C 198.449219 112.675781 198.195312 112.800781 198 112.996094 L 166.65625 144.523438 C 166.183594 145.003906 166.1875 145.78125 166.664062 146.257812 C 166.890625 146.484375 167.199219 146.609375 167.519531 146.613281 L 174.140625 146.613281 L 174.140625 169.035156 C 174.140625 169.707031 174.683594 170.253906 175.355469 170.257812 L 222.371094 170.257812 C 223.042969 170.253906 223.585938 169.707031 223.585938 169.035156 L 223.585938 146.613281 L 230.207031 146.613281 C 230.882812 146.609375 231.425781 146.058594 231.421875 145.382812 C 231.421875 145.058594 231.296875 144.753906 231.070312 144.523438 L 223.429688 136.839844 L 223.429688 126.316406 C 223.429688 125.644531 222.886719 125.097656 222.214844 125.09375 L 217.042969 125.09375 C 216.375 125.097656 215.832031 125.644531 215.828125 126.316406 L 215.828125 129.195312 L 199.726562 112.996094 C 199.464844 112.730469 199.09375 112.601562 198.726562 112.640625 Z M 198.726562 112.640625 "/></g><g clip-rule="nonzero" clip-path="url(#266ce56088)"><path style=" stroke:none;fill-rule:nonzero;fill:#000000;fill-opacity:1;" d="M 128.269531 280.34375 L 98.464844 257.660156 C 97.667969 257.054688 96.542969 257.054688 95.746094 257.660156 L 65.921875 280.34375 C 65.164062 280.929688 64.863281 281.921875 65.171875 282.824219 C 65.484375 283.726562 66.332031 284.332031 67.285156 284.332031 L 73.761719 284.332031 L 73.761719 308.042969 C 73.761719 309.269531 74.757812 310.261719 75.996094 310.261719 L 118.214844 310.261719 C 119.449219 310.261719 120.449219 309.269531 120.449219 308.042969 L 120.449219 284.332031 L 126.914062 284.332031 C 127.875 284.332031 128.726562 283.726562 129.03125 282.824219 C 129.328125 281.921875 129.023438 280.929688 128.269531 280.34375 Z M 128.269531 280.34375 "/></g></g></svg>